%TF.GenerationSoftware,KiCad,Pcbnew,10.0.3*%
%TF.CreationDate,2026-06-09T10:07:33+08:00*%
%TF.ProjectId,BackupProjects_vasipallieshan_personal_2_20260608,4261636b-7570-4507-926f-6a656374735f,v1.0*%
%TF.SameCoordinates,Original*%
%TF.FileFunction,Copper,L1,Top*%
%TF.FilePolarity,Positive*%
%FSLAX46Y46*%
G04 Gerber Fmt 4.6, Leading zero omitted, Abs format (unit mm)*
G04 Created by KiCad (PCBNEW 10.0.3) date 2026-06-09 10:07:33*
%MOMM*%
%LPD*%
G01*
G04 APERTURE LIST*
%TA.AperFunction,EtchedComponent*%
%ADD10C,0.600000*%
%TD*%
%TA.AperFunction,SMDPad,CuDef*%
%ADD11R,1.524000X1.524000*%
%TD*%
%TA.AperFunction,ComponentPad*%
%ADD12C,0.609600*%
%TD*%
%TA.AperFunction,SMDPad,CuDef*%
%ADD13R,0.800000X0.800000*%
%TD*%
%TA.AperFunction,SMDPad,CuDef*%
%ADD14R,0.900000X0.800000*%
%TD*%
%TA.AperFunction,SMDPad,CuDef*%
%ADD15R,0.400000X0.220000*%
%TD*%
%TA.AperFunction,SMDPad,CuDef*%
%ADD16R,0.220000X0.400000*%
%TD*%
%TA.AperFunction,SMDPad,CuDef*%
%ADD17R,0.280000X0.400000*%
%TD*%
%TA.AperFunction,SMDPad,CuDef*%
%ADD18R,1.207500X1.701000*%
%TD*%
%TA.AperFunction,ViaPad*%
%ADD19C,0.600000*%
%TD*%
%TA.AperFunction,Conductor*%
%ADD20C,0.200000*%
%TD*%
G04 APERTURE END LIST*
%TO.C,ANT1*%
D10*
X209686000Y-113240900D02*
X209686000Y-98740900D01*
X209686000Y-98740900D02*
X161386000Y-98740900D01*
X208485900Y-112040900D02*
X208485900Y-99940900D01*
X208485900Y-99940900D02*
X162586000Y-99940900D01*
X207285900Y-110840900D02*
X207285900Y-101140900D01*
X207285900Y-101140900D02*
X163786000Y-101140900D01*
X206086000Y-109640900D02*
X206086000Y-102340900D01*
X206086000Y-102340900D02*
X164986000Y-102340900D01*
X204886000Y-108440900D02*
X204886000Y-103540900D01*
X204886000Y-103540900D02*
X166186000Y-103540900D01*
X166186000Y-96640900D02*
X166116000Y-96640900D01*
X166116000Y-96640900D02*
X164986000Y-96640900D01*
X164986000Y-108440900D02*
X204886000Y-108440900D01*
X164986000Y-102340900D02*
X164986000Y-108440900D01*
X163786000Y-109640900D02*
X206086000Y-109640900D01*
X163786000Y-101140900D02*
X163786000Y-109640900D01*
X162586000Y-110840900D02*
X207285900Y-110840900D01*
X162586000Y-99940900D02*
X162586000Y-110840900D01*
X161387100Y-112040100D02*
X208485900Y-112040900D01*
X161387100Y-98740600D02*
X161387100Y-112040100D01*
X160186000Y-113240900D02*
X209686000Y-113240900D01*
X160186000Y-98740900D02*
X160186000Y-113240900D01*
X160185700Y-98740600D02*
X160176000Y-96640900D01*
%TD*%
D11*
%TO.P,ANT1,2*%
%TO.N,U1_1*%
X164986100Y-96640800D03*
%TO.P,ANT1,1*%
%TO.N,U1_8*%
X160576100Y-96621000D03*
D12*
%TO.P,ANT1,*%
%TO.N,*%
X166186000Y-103541000D03*
X166186000Y-96640800D03*
%TD*%
D13*
%TO.P,UwU,1*%
%TO.N,U2_1*%
X67300000Y-110600000D03*
%TO.P,UwU,2*%
%TO.N,U1_2*%
X67300000Y-109097800D03*
%TD*%
D14*
%TO.P,C1,2*%
%TO.N,U1_6*%
X243600000Y-100800000D03*
%TO.P,C1,1*%
%TO.N,U1_2*%
X243600000Y-102200000D03*
%TD*%
D15*
%TO.P,U1,8*%
%TO.N,U1_8*%
X240400100Y-101200000D03*
D16*
%TO.P,U1,7*%
%TO.N,U1_6*%
X240500200Y-100600000D03*
%TO.P,U1,6*%
X241000100Y-100600000D03*
%TO.P,U1,5*%
%TO.N,U1_5*%
X241500200Y-100600000D03*
D15*
%TO.P,U1,4*%
%TO.N,U1_4*%
X241600000Y-101200000D03*
D16*
%TO.P,U1,3*%
%TO.N,U1_3*%
X241499900Y-101799900D03*
%TO.P,U1,2*%
%TO.N,U1_2*%
X241000100Y-101799900D03*
D17*
%TO.P,U1,1*%
%TO.N,U1_1*%
X240500200Y-101799900D03*
%TD*%
D18*
%TO.P,R7-11,1*%
%TO.N,U2_1*%
X243600000Y-105400000D03*
%TO.P,R7-11,2*%
%TO.N,U1_6*%
X240642400Y-105400000D03*
%TD*%
D19*
%TO.N,U1_6*%
X238500000Y-100300000D03*
X242100000Y-103800000D03*
%TD*%
%TO.N,U1_6*%
D20*
X238800000Y-100600000D02*
X240500200Y-100600000D01*
X238500000Y-100300000D02*
X238800000Y-100600000D01*
X240642400Y-105257600D02*
X242100000Y-103800000D01*
X240642400Y-105400000D02*
X240642400Y-105257600D01*
%TO.N,U1_8*%
X234326300Y-101200000D02*
X240400100Y-101200000D01*
X228694400Y-95568100D02*
X234326300Y-101200000D01*
X162692700Y-95568100D02*
X228694400Y-95568100D01*
X161639800Y-96621000D02*
X162692700Y-95568100D01*
X160576100Y-96621000D02*
X161639800Y-96621000D01*
%TO.N,U1_1*%
X170145200Y-101799900D02*
X240500200Y-101799900D01*
X164986100Y-96640800D02*
X170145200Y-101799900D01*
%TO.N,U1_6*%
X241000100Y-100600000D02*
X241000100Y-100098300D01*
X240500200Y-100600000D02*
X240500200Y-100098300D01*
X240500200Y-100098300D02*
X241000100Y-100098300D01*
X241000100Y-100098300D02*
X243600000Y-100098300D01*
X243600000Y-100800000D02*
X243600000Y-100449100D01*
X243600000Y-100449100D02*
X243600000Y-100098300D01*
%TO.N,U1_2*%
X241000100Y-101799900D02*
X241000100Y-102301600D01*
X243600000Y-102200000D02*
X242848300Y-102200000D01*
X242746700Y-102301600D02*
X241000100Y-102301600D01*
X242848300Y-102200000D02*
X242746700Y-102301600D01*
X234203900Y-109097800D02*
X67300000Y-109097800D01*
X241000100Y-102301600D02*
X234203900Y-109097800D01*
%TO.N,U2_1*%
X237494500Y-110600000D02*
X67300000Y-110600000D01*
X242694500Y-105400000D02*
X237494500Y-110600000D01*
X243600000Y-105400000D02*
X242694500Y-105400000D01*
%TD*%
M02*
